<svg xmlns="http://www.w3.org/2000/svg" width="78" height="22"><path fill="#FFF" d="M76.3.8c.8 0 1.5.6 1.5 1.4v17.5c0 .8-.7 1.5-1.5 1.5H59c-.8 0-1.5-.7-1.5-1.5V2.2c0-.8.7-1.4 1.5-1.4h17.3zM54.4 4.5V15l.1 2.7v.2h-2.7l-.1-1.4c-.7 1-1.9 1.6-3.2 1.6-2.3 0-4.2-2-4.2-5 0-3.2 2-5 4.4-5 1.2 0 2 .3 2.6 1V4.5h3.1zM39.4 8c3.2 0 4.4 2.4 4.4 4.8V14h-6.4c0 1.3 1.3 1.8 2.8 1.8.9 0 1.7 0 2.4-.3h.3l.4 2c-1 .4-2.3.6-3.6.6-3.3 0-5.2-2-5.2-5 0-2.4 1.5-5 5-5zM3.8 4.5v10.6h5.4v2.8H.8V4.5h3zm9.7 4.2v9.2h-3V8.7h3zm7.3-.3c2 0 3.5 1.4 3.5 4.2v5.3h-3v-5c0-1.2-.5-2-1.6-2-.9 0-1.4.5-1.6 1v6h-3.2v-.1-5.6V11v-.8-1.6H18V10v-.1a3 3 0 012.5-1.5zm7.8-3.9v7.7c.2-.5 2.7-4 2.7-4H35l-3.5 4 4 5.7h-3.7l-2.4-4-.8 1v3h-3V4.5h3zm35 4.1h-3V18h3V8.6zm7.6-.2H71a3 3 0 00-2.2 1h-.1l-.1.2h-.1v.2h-.1v.2-1.4h-3.1V18h3v-5.2l.1-.7c.2-.6.7-1.2 1.6-1.2 1 0 1.5.8 1.5 2v5.1h3.1V12.5c0-2.8-1.5-4-3.5-4zm-21.7 2c-1.4 0-2 1.2-2 2.7 0 1.6.8 2.6 2 2.6 1 0 1.6-.6 1.8-1.4v-2-.5c-.1-.8-.8-1.5-1.8-1.5zM39.3 10c-1.3 0-1.8 1-2 1.8v.2H41c0-.8-.3-2-1.7-2zM12 4.2c1 0 1.7.7 1.7 1.6 0 .9-.6 1.6-1.7 1.6-1 0-1.7-.7-1.7-1.6 0-.9.7-1.6 1.7-1.6zm50.2 0c-1 0-1.8.7-1.8 1.6 0 .8.6 1.5 1.6 1.6h.2c1 0 1.7-.7 1.7-1.6 0-1-.7-1.6-1.7-1.6z"/></svg>